PathFileType	4	(x/y/z)	TRC_MarkerData\Passive\Passive_Pref0005.trc
DataRate	CameraRate	NumFrames	NumMarkers	Units	OrigDataRate	OrigDataStartFrame	OrigNumFrames
240	240	8	50	mm	240	115	304
Frame#	Time	R_AC			L_AC			HEAD			STERN			C7			L_IC			R_IC			L_ASIS			R_ASIS			L_GT			R_GT			L_PSIS			R_PSIS			SACRAL			L_LAT_KNEE			L_MED_KNEE			R_LAT_KNEE			R_MED_KNEE			L_LAT_ANK			L_MED_ANK			R_LAT_ANK			R_MED_ANK			L_THIGH_PROX_POST			L_THIGH_PROX_ANT			L_THIGH_DIST_ANT			L_THIGH_DIST_POST			R_THIGH_PROX_POST			R_THIGH_PROX_ANT			R_THIGH_DIST_ANT			R_THIGH_DIST_POST			L_SHANK_PROX_POST			L_SHANK_PROX_ANT			L_SHANK_DIST_ANT			L_SHANK_DIST_POST			R_SHANK_PROX_POST			R_SHANK_PROX_ANT			R_SHANK_DIST_ANT			R_SHANK_DIST_POST			L_HEEL_LAT			L_HEEL_SUP			L_HEEL_MED			R_HEEL_LAT			R_HEEL_SUP			R_HEEL_MED			L_1ST_MET			L_5TH_MET			L_TOE			R_1ST_MET			R_5TH_MET			R_TOE			
		X1	Y1	Z1	X2	Y2	Z2	X3	Y3	Z3	X4	Y4	Z4	X5	Y5	Z5	X6	Y6	Z6	X7	Y7	Z7	X8	Y8	Z8	X9	Y9	Z9	X10	Y10	Z10	X11	Y11	Z11	X12	Y12	Z12	X13	Y13	Z13	X14	Y14	Z14	X15	Y15	Z15	X16	Y16	Z16	X17	Y17	Z17	X18	Y18	Z18	X19	Y19	Z19	X20	Y20	Z20	X21	Y21	Z21	X22	Y22	Z22	X23	Y23	Z23	X24	Y24	Z24	X25	Y25	Z25	X26	Y26	Z26	X27	Y27	Z27	X28	Y28	Z28	X29	Y29	Z29	X30	Y30	Z30	X31	Y31	Z31	X32	Y32	Z32	X33	Y33	Z33	X34	Y34	Z34	X35	Y35	Z35	X36	Y36	Z36	X37	Y37	Z37	X38	Y38	Z38	X39	Y39	Z39	X40	Y40	Z40	X41	Y41	Z41	X42	Y42	Z42	X43	Y43	Z43	X44	Y44	Z44	X45	Y45	Z45	X46	Y46	Z46	X47	Y47	Z47	X48	Y48	Z48	X49	Y49	Z49	X50	Y50	Z50	

115	0.47657	-282.03	1530.8	435.84	-280.13	1557.2	46.946	-158.86	1838.6	263.61	-181.66	1499.5	243.16	-324.56	1589.7	244.15	-302.98	1094.2	85.609	-292.9	1119.3	424.63	-237.61	1035	114.54	-224.17	1038.8	384.92	-338.5	964.14	69.166	-302.73	970.06	443.55	-439.69	1066.5	215.23	-426.83	1061.8	322.19	-446.9	1039.8	270.48	-385.41	561.05	111.36	-371.2	571.67	247.24	-149.42	573.41	428.87	-116.33	572.51	300.24	-512.92	127.59	142.27	-517.77	132.52	219.47	-88.018	110.69	392.86	-47.434	146.34	304.35	-388.27	820.91	89.326	-325.77	802.8	80.099	-339.65	729.07	91.495	-400.71	748.69	100.22	-262.72	792.27	444.95	-201.22	817.7	450.06	-177.62	746.69	446.61	-240.33	720.59	437.62	-388.74	507.89	120.63	-344.96	516.41	133.66	-352.5	467.17	141.65	-402.21	455.86	127.94	-196.87	405.93	409.93	-136.69	427.64	440.34	-113.5	357.23	434.14	-172.49	333.35	405.36	-582.71	54.674	144.23	-593.7	81.702	178.07	-587.33	50.87	210.66	-123.89	38.496	351.44	-128.3	63.595	315.23	-96.7	47.281	289.97	-363.13	49.113	248.14	-374.66	42.888	142.47	-309.75	56.3	226.52	106.14	126.19	360.63	50.558	90.623	452.82	127.41	145.16	421.95
116	0.48075	-276.04	1530.2	436.18	-274.78	1556.6	47.308	-153.27	1838	264.03	-176.07	1498.8	243.31	-318.86	1589.1	244.58	-298.17	1093.8	85.769	-286.84	1118.5	424.82	-232.66	1034.4	114.51	-218.29	1037.9	384.84	-333.86	963.85	69.396	-296.74	969.23	443.64	-434.3	1066.1	215.9	-421.1	1061.3	322.8	-441.4	1039.5	271.15	-382.65	560.92	111.48	-368.35	571.43	247.36	-144.58	572.26	428.59	-111.82	571.42	299.89	-512.47	128.03	142.3	-517.33	132.94	219.54	-72.487	110.8	393.17	-33.118	147.52	304.66	-384.27	820.96	89.615	-321.87	802.54	80.273	-336.11	728.87	91.661	-397.04	748.79	100.45	-257.8	791.19	444.86	-196.07	816.37	450.03	-172.79	745.27	446.45	-235.6	719.45	437.41	-386.27	507.78	120.75	-342.45	516.05	133.79	-350.23	466.85	141.74	-400.01	455.81	128.04	-188.55	403.74	409.98	-128.84	426.88	440.33	-104.01	357.01	434.19	-162.48	331.73	405.45	-582.58	55.179	144.3	-593.5	82.215	178.14	-587.19	51.366	210.72	-106.88	37.786	351.88	-112.02	62.759	315.68	-80.053	47.309	290.33	-363	49.019	248.16	-374.59	42.873	142.49	-309.6	56.048	226.54	121.01	131.14	360.73	66.52	94.17	452.91	141.94	150.58	422.03
117	0.48493	-270.01	1529.5	436.54	-269.41	1556	47.685	-147.68	1837.3	264.45	-170.46	1498.1	243.47	-313.15	1588.4	245.02	-293.35	1093.3	85.931	-280.72	1117.7	425.01	-227.7	1033.9	114.48	-212.38	1037.1	384.76	-329.21	963.54	69.629	-290.7	968.37	443.72	-428.89	1065.7	216.59	-415.34	1060.8	323.42	-435.86	1039.1	271.83	-379.85	560.78	111.6	-365.45	571.18	247.49	-139.73	571.08	428.32	-107.32	570.31	299.52	-512.01	128.48	142.34	-516.88	133.37	219.62	-57.192	111.08	393.42	-19.046	148.84	304.92	-380.22	820.98	89.908	-317.93	802.27	80.448	-332.53	728.66	91.833	-393.32	748.88	100.69	-252.83	790.11	444.79	-190.87	815.02	450	-167.92	743.83	446.29	-230.83	718.29	437.23	-383.76	507.66	120.87	-339.9	515.68	133.92	-347.93	466.52	141.84	-397.77	455.77	128.15	-180.29	401.62	410.03	-121.07	426.16	440.31	-94.635	356.84	434.23	-152.56	330.21	405.54	-582.45	55.699	144.36	-593.29	82.742	178.21	-587.05	51.876	210.79	-90.107	37.3	352.24	-95.99	62.142	316.07	-63.673	47.559	290.62	-362.86	48.927	248.18	-374.51	42.86	142.52	-309.44	55.795	226.55	135.56	136.17	360.75	82.194	97.805	452.91	156.15	156.03	422.03
118	0.48911	-263.96	1528.8	436.91	-264.02	1555.4	48.076	-142.09	1836.6	264.89	-164.84	1497.4	243.64	-307.41	1587.7	245.48	-288.52	1092.8	86.098	-274.56	1116.9	425.21	-222.7	1033.3	114.45	-206.44	1036.2	384.66	-324.52	963.21	69.867	-284.6	967.48	443.81	-423.46	1065.3	217.28	-409.55	1060.2	324.05	-430.29	1038.6	272.52	-377	560.63	111.73	-362.51	570.91	247.63	-134.85	569.9	428.07	-102.83	569.19	299.14	-511.54	128.94	142.38	-516.43	133.8	219.7	-42.159	111.5	393.62	-5.2336	150.29	305.12	-376.14	821	90.204	-313.95	801.99	80.625	-328.91	728.44	92.012	-389.56	748.96	100.94	-247.79	789.01	444.75	-185.6	813.66	449.97	-162.99	742.36	446.15	-226.01	717.12	437.08	-381.21	507.53	121	-337.31	515.29	134.06	-345.58	466.18	141.94	-395.49	455.71	128.27	-172.06	399.57	410.06	-113.35	425.46	440.29	-85.369	356.72	434.26	-142.73	328.79	405.6	-582.32	56.235	144.44	-593.07	83.283	178.28	-586.9	52.402	210.86	-73.607	37.023	352.53	-80.217	61.729	316.39	-47.584	48.013	290.83	-362.73	48.836	248.19	-374.42	42.849	142.55	-309.29	55.541	226.56	149.77	141.25	360.71	97.563	101.5	452.84	170.04	161.49	421.98
119	0.49329	-257.88	1528.1	437.29	-258.62	1554.7	48.482	-136.5	1835.9	265.34	-159.2	1496.7	243.82	-301.65	1587	245.95	-283.66	1092.2	86.271	-268.36	1116.1	425.4	-217.68	1032.7	114.42	-200.47	1035.3	384.56	-319.79	962.85	70.109	-278.46	966.57	443.9	-418	1064.9	217.99	-403.74	1059.6	324.7	-424.7	1038.2	273.22	-374.11	560.47	111.87	-359.52	570.63	247.77	-129.94	568.71	427.83	-98.329	568.06	298.76	-511.06	129.41	142.42	-515.96	134.24	219.79	-27.413	112.06	393.76	8.3063	151.85	305.27	-372	821	90.502	-309.92	801.7	80.803	-325.24	728.21	92.198	-385.75	749.02	101.19	-242.66	787.9	444.73	-180.26	812.28	449.95	-157.99	740.89	446.01	-221.13	715.93	436.95	-378.62	507.39	121.14	-334.68	514.89	134.21	-343.2	465.82	142.05	-393.18	455.65	128.39	-163.88	397.61	410.09	-105.69	424.79	440.26	-76.218	356.64	434.27	-132.99	327.46	405.64	-582.18	56.789	144.51	-592.86	83.839	178.35	-586.75	52.943	210.93	-57.405	36.937	352.73	-64.73	61.506	316.62	-31.809	48.652	290.96	-362.59	48.747	248.21	-374.34	42.839	142.58	-309.13	55.285	226.58	163.64	146.33	360.62	112.61	105.22	452.7	183.59	166.93	421.86
120	0.49747	-251.78	1527.4	437.69	-253.19	1554.1	48.903	-130.91	1835.2	265.79	-153.55	1495.9	244.01	-295.87	1586.3	246.44	-278.77	1091.7	86.455	-262.12	1115.2	425.59	-212.63	1032	114.38	-194.48	1034.4	384.45	-315.04	962.47	70.355	-272.29	965.63	443.99	-412.51	1064.4	218.71	-397.9	1059	325.35	-419.08	1037.7	273.93	-371.18	560.29	112.02	-356.48	570.34	247.92	-124.98	567.52	427.6	-93.8	566.93	298.38	-510.57	129.9	142.46	-515.49	134.69	219.88	-12.978	112.74	393.84	21.56	153.5	305.37	-367.82	820.98	90.8	-305.84	801.4	80.985	-321.52	727.96	92.389	-381.88	749.06	101.44	-237.44	786.8	444.75	-174.84	810.91	449.93	-152.92	739.42	445.88	-216.17	714.74	436.86	-375.98	507.24	121.28	-332	514.47	134.35	-340.78	465.46	142.16	-390.83	455.58	128.53	-155.75	395.73	410.1	-98.101	424.15	440.22	-67.185	356.6	434.25	-123.37	326.21	405.66	-582.04	57.36	144.59	-592.63	84.411	178.42	-586.59	53.502	211	-41.527	37.02	352.84	-49.551	61.454	316.78	-16.369	49.454	291	-362.44	48.659	248.22	-374.25	42.831	142.61	-308.96	55.028	226.59	177.15	151.4	360.46	127.31	108.94	452.48	196.8	172.3	421.7
121	0.50165	-245.64	1526.6	438.1	-247.75	1553.4	49.34	-125.31	1834.5	266.26	-147.88	1495.2	244.21	-290.07	1585.6	246.95	-273.85	1091.1	86.654	-255.85	1114.3	425.78	-207.56	1031.4	114.35	-188.48	1033.5	384.35	-310.25	962.07	70.604	-266.1	964.67	444.09	-407	1063.9	219.45	-392.03	1058.3	326	-413.44	1037.1	274.64	-368.19	560.1	112.17	-353.38	570.03	248.07	-119.96	566.34	427.38	-89.227	565.82	298.01	-510.06	130.39	142.51	-515.02	135.15	219.97	1.1228	113.51	393.87	34.515	155.22	305.41	-363.59	820.95	91.098	-301.71	801.08	81.17	-317.75	727.7	92.585	-377.96	749.09	101.69	-232.12	785.69	444.79	-169.33	809.54	449.91	-147.75	737.95	445.76	-211.12	713.56	436.8	-373.3	507.08	121.42	-329.27	514.04	134.5	-338.32	465.08	142.28	-388.43	455.51	128.67	-147.67	393.92	410.09	-90.567	423.53	440.17	-58.271	356.58	434.22	-113.86	325.05	405.65	-581.89	57.95	144.66	-592.41	84.998	178.48	-586.43	54.079	211.08	-26	37.25	352.86	-34.703	61.554	316.85	-1.2866	50.395	290.95	-362.3	48.573	248.24	-374.16	42.824	142.65	-308.8	54.769	226.6	190.3	156.42	360.26	141.66	112.63	452.19	209.65	177.58	421.48
122	0.50583	-239.48	1525.8	438.52	-242.3	1552.7	49.793	-119.72	1833.7	266.74	-142.19	1494.4	244.42	-284.26	1584.8	247.48	-268.89	1090.5	86.871	-249.54	1113.4	425.98	-202.46	1030.7	114.32	-182.45	1032.6	384.24	-305.41	961.64	70.858	-259.89	963.7	444.21	-401.44	1063.3	220.2	-386.15	1057.6	326.67	-407.77	1036.5	275.36	-365.14	559.9	112.32	-350.23	569.7	248.22	-114.86	565.17	427.18	-84.592	564.73	297.64	-509.53	130.91	142.56	-514.53	135.62	220.07	14.869	114.35	393.84	47.159	156.98	305.39	-359.31	820.89	91.395	-297.53	800.75	81.359	-313.91	727.42	92.785	-373.99	749.11	101.94	-226.68	784.59	444.86	-163.73	808.19	449.89	-142.5	736.51	445.65	-205.97	712.38	436.76	-370.56	506.9	121.57	-326.49	513.59	134.64	-335.81	464.69	142.41	-385.99	455.42	128.81	-139.63	392.21	410.06	-83.088	422.92	440.1	-49.48	356.58	434.17	-104.47	323.97	405.6	-581.73	58.559	144.74	-592.18	85.602	178.55	-586.26	54.675	211.16	-10.849	37.602	352.79	-20.208	61.782	316.84	13.416	51.447	290.81	-362.15	48.488	248.25	-374.07	42.818	142.68	-308.63	54.508	226.61	203.09	161.34	360	155.63	116.26	451.84	222.14	182.72	421.22
